<?xml version="1.0" ?><svg viewBox="0 0 64 64" xmlns="http://www.w3.org/2000/svg"><g data-name="Chair" id="Chair-2"><path d="M23.63,15.5a1.25,1.25,0,0,0,1.25-1.25h0A1.25,1.25,0,0,0,23.63,13h0a1.25,1.25,0,1,0,0,2.5Z"/><path d="M10,31.43V39.6a7.53,7.53,0,0,0,4.58,6.92l-1.76,6.54a3.14,3.14,0,0,0,6.06,1.62l2-7.57H43.08l2,7.57a3.14,3.14,0,0,0,6.06-1.62L49.4,46.52A7.53,7.53,0,0,0,54,39.6V31.43A8.75,8.75,0,0,0,47.45,23l1.28-9.18A5.81,5.81,0,0,0,47.47,9a6.11,6.11,0,0,0-4.64-2H21.17a6.11,6.11,0,0,0-4.64,2,5.81,5.81,0,0,0-1.26,4.81L16.55,23A8.75,8.75,0,0,0,10,31.43ZM17,54.16a1.13,1.13,0,0,1-2.19-.58L16.53,47a8.12,8.12,0,0,0,1,.07h1.32Zm32.27-.58a1.13,1.13,0,0,1-2.19.58l-1.89-7h1.32a8.12,8.12,0,0,0,1-.07Zm-32-40.06A3.89,3.89,0,0,1,18,10.3,4.13,4.13,0,0,1,21.17,9H42.83A4.13,4.13,0,0,1,46,10.3a3.89,3.89,0,0,1,.79,3.22L45.47,22.7h-.22a2.66,2.66,0,0,0-2.66,2.65v6.57a4.48,4.48,0,0,0-2.48-.75H23.89a4.48,4.48,0,0,0-2.48.75V25.34a2.66,2.66,0,0,0-2.66-2.65h-.23Zm4.16,22.13a2.48,2.48,0,0,1,2.48-2.49H40.11a2.48,2.48,0,0,1,2.48,2.49v2.49H21.41Zm-2.66-11a.66.66,0,0,1,.66.65v12.8h-.58a1,1,0,0,0,0,2H45.17a1,1,0,0,0,0-2h-.58V25.34a.66.66,0,0,1,.66-.65A6.75,6.75,0,0,1,52,31.43V39.6a5.51,5.51,0,0,1-5.51,5.51H17.53A5.51,5.51,0,0,1,12,39.6V31.43A6.75,6.75,0,0,1,18.75,24.69Z"/><path d="M32,15.5a1.25,1.25,0,0,0,1.25-1.25h0A1.25,1.25,0,0,0,32,13h0a1.25,1.25,0,0,0,0,2.5Z"/><path d="M40.37,15.5a1.25,1.25,0,0,0,1.25-1.25h0A1.25,1.25,0,0,0,40.37,13h0a1.25,1.25,0,0,0,0,2.5Z"/><path d="M23.63,21.52a1.25,1.25,0,0,0,1.25-1.25h0A1.25,1.25,0,0,0,23.63,19h0a1.25,1.25,0,0,0,0,2.5Z"/><path d="M32,21.52a1.25,1.25,0,0,0,1.25-1.25h0A1.25,1.25,0,0,0,32,19h0a1.25,1.25,0,0,0,0,2.5Z"/><path d="M40.37,21.52a1.25,1.25,0,0,0,1.25-1.25h0A1.25,1.25,0,0,0,40.37,19h0a1.25,1.25,0,0,0,0,2.5Z"/><path d="M27.82,27.55h0a1.25,1.25,0,0,0,1.25-1.25h0a1.25,1.25,0,1,0-1.25,1.25Z"/><circle cx="36.18" cy="26.3" r="1.25"/></g></svg>